<svg xmlns:xlink="http://www.w3.org/1999/xlink">

    <symbol viewBox="0 0 28 20" id="navicon" xmlns="http://www.w3.org/2000/svg">
        <defs>
            <g id="nav_icon">
                <path fill-rule="evenodd" clip-rule="evenodd" d="M27.3333 3.33332V0.666656H0.666626V3.33332H27.3333ZM27.3333 8.66666V11.3333H0.666626V8.66666H27.3333ZM27.3333 16.6667V19.3333H0.666626V16.6667H27.3333Z"/>
            </g>
        </defs>
        <use xlink:href="#nav_icon" transform="translate(0 0 28 20)"/>
    </symbol>


    <symbol viewBox="0 0 16 16" id="phoneicon" xmlns="http://www.w3.org/2000/svg">
        <defs>
            <g id="phone_icon">
                <path fill-rule="evenodd" clip-rule="evenodd" d="M7.14263 5.25349C7.53121 4.72983 7.67055 4.17794 7.23107 3.69079C6.24486 2.31081 5.5816 1.45743 5.16558 1.04646C4.37466 0.265164 3.07358 0.370847 2.38859 1.0458C2.02067 1.40832 1.89612 1.53281 1.51834 1.91652C-0.585894 4.02189 0.697379 8.47256 4.10879 11.8873C7.51942 15.3013 11.9697 16.5853 14.0783 14.4754C14.4269 14.1394 14.7221 13.8441 14.9548 13.598C15.6261 12.8885 15.728 11.6448 14.9504 10.8369C14.5518 10.4226 13.738 9.79141 12.2999 8.76276C11.8595 8.36893 11.3373 8.45429 10.8585 8.76839C10.6282 8.91948 10.4606 9.07232 10.1442 9.38911L9.56947 9.96411C9.49378 10.0398 8.46598 9.52512 7.46828 8.52644C6.47003 7.52721 5.95567 6.49936 6.031 6.42402L6.60608 5.84863C6.70649 5.74812 6.75449 5.69946 6.81605 5.63476C6.94431 5.49997 7.0505 5.37764 7.14263 5.25349ZM10.6295 11.0248L11.2043 10.4497C11.3785 10.2753 11.4914 10.1681 11.5832 10.0942C12.843 10.9989 13.5725 11.5677 13.8705 11.8773C14.0495 12.0632 14.0217 12.4025 13.8661 12.5668C13.6509 12.7944 13.3712 13.0742 13.0281 13.4052C11.6645 14.7693 8.07217 13.7328 5.16909 10.8269C2.2651 7.92005 1.22916 4.32716 2.58239 2.97318C2.95864 2.59105 3.07784 2.4719 3.44051 2.11455C3.57649 1.98057 3.94688 1.95048 4.1123 2.11389C4.4326 2.43029 5.02675 3.19105 5.90077 4.40856C5.85553 4.46473 5.79902 4.52822 5.73024 4.60049C5.67977 4.65355 5.63771 4.69617 5.54578 4.7882L4.97126 5.36303C3.9939 6.34031 4.82626 8.0036 6.40797 9.58687C7.9886 11.1691 9.65251 12.0023 10.6295 11.0248Z"/>
            </g>
        </defs>
        <use xlink:href="#phone_icon" transform="translate(0 0 16 16)"/>
    </symbol>

</svg>

